<svg width="131" height="31" viewBox="0 0 131 31" fill="none" xmlns="http://www.w3.org/2000/svg">
<path d="M0.445668 30V0.90909H3.10192V14.2472H19.6076V0.90909H22.2639V30H19.6076V16.6335H3.10192V30H0.445668ZM53.8264 15.4545C53.8264 18.4848 53.2866 21.1222 52.207 23.3665C51.1275 25.6013 49.6407 27.3343 47.7468 28.5653C45.8623 29.7869 43.6938 30.3977 41.2411 30.3977C38.7885 30.3977 36.6152 29.7869 34.7212 28.5653C32.8368 27.3343 31.3548 25.6013 30.2752 23.3665C29.2051 21.1222 28.6701 18.4848 28.6701 15.4545C28.6701 12.4242 29.2051 9.79167 30.2752 7.55682C31.3548 5.3125 32.8415 3.57954 34.7354 2.35795C36.6294 1.12689 38.7979 0.511363 41.2411 0.511363C43.6938 0.511363 45.8623 1.12689 47.7468 2.35795C49.6407 3.57954 51.1275 5.3125 52.207 7.55682C53.2866 9.79167 53.8264 12.4242 53.8264 15.4545ZM51.2411 15.4545C51.2411 12.8504 50.8055 10.6203 49.9343 8.7642C49.0631 6.89867 47.8746 5.47348 46.369 4.48864C44.8633 3.50379 43.154 3.01136 41.2411 3.01136C39.3377 3.01136 37.6332 3.50379 36.1275 4.48864C34.6218 5.47348 33.4286 6.89394 32.5479 8.75C31.6767 10.6061 31.2411 12.8409 31.2411 15.4545C31.2411 18.0587 31.6767 20.2888 32.5479 22.1449C33.4192 24.0009 34.6076 25.4261 36.1133 26.4205C37.619 27.4053 39.3282 27.8977 41.2411 27.8977C43.154 27.8977 44.8633 27.4053 46.369 26.4205C47.8841 25.4356 49.0773 24.0152 49.9485 22.1591C50.8197 20.2936 51.2506 18.0587 51.2411 15.4545ZM67.6367 20.8381C66.6519 20.8381 65.7522 20.5966 64.9379 20.1136C64.1235 19.6212 63.4748 18.9678 62.9918 18.1534C62.5089 17.339 62.2627 16.4394 62.2532 15.4545C62.2532 14.4602 62.4947 13.5606 62.9776 12.7557C63.4606 11.9413 64.1093 11.2926 64.9237 10.8097C65.7475 10.3172 66.6519 10.071 67.6367 10.071C68.631 10.071 69.5307 10.3172 70.3356 10.8097C71.15 11.2926 71.7987 11.9413 72.2816 12.7557C72.774 13.5606 73.0202 14.4602 73.0202 15.4545C73.0202 16.4394 72.774 17.339 72.2816 18.1534C71.7987 18.9678 71.15 19.6212 70.3356 20.1136C69.5307 20.5966 68.631 20.8381 67.6367 20.8381ZM82.793 30H80.0089L90.5913 0.90909H93.4322L104.015 30H101.23L92.1112 4.3608H91.9123L82.793 30ZM84.7958 18.8494H99.2276V21.2358H84.7958V18.8494ZM127.761 10C127.496 9.03409 127.108 8.12973 126.596 7.28693C126.085 6.43466 125.45 5.69129 124.693 5.05682C123.945 4.41288 123.078 3.91098 122.093 3.55114C121.118 3.19129 120.029 3.01136 118.826 3.01136C116.932 3.01136 115.237 3.50379 113.741 4.48864C112.245 5.47348 111.061 6.89394 110.19 8.75C109.328 10.6061 108.897 12.8409 108.897 15.4545C108.897 18.0587 109.333 20.2888 110.204 22.1449C111.075 24.0009 112.269 25.4261 113.784 26.4205C115.308 27.4053 117.051 27.8977 119.011 27.8977C120.801 27.8977 122.382 27.5 123.755 26.7045C125.128 25.9091 126.199 24.7727 126.966 23.2955C127.742 21.8182 128.121 20.0616 128.102 18.0256L128.954 18.2955H119.636V15.9091H130.687V18.2955C130.687 20.7765 130.185 22.9214 129.181 24.7301C128.178 26.5388 126.8 27.9356 125.048 28.9205C123.296 29.9053 121.284 30.3977 119.011 30.3977C116.473 30.3977 114.252 29.7869 112.349 28.5653C110.446 27.3343 108.964 25.6013 107.903 23.3665C106.852 21.1222 106.326 18.4848 106.326 15.4545C106.326 13.1723 106.629 11.1127 107.235 9.27557C107.842 7.43845 108.699 5.86648 109.806 4.55966C110.924 3.25284 112.245 2.25379 113.77 1.5625C115.294 0.861742 116.98 0.511363 118.826 0.511363C120.417 0.511363 121.871 0.762309 123.187 1.2642C124.513 1.7661 125.678 2.45739 126.681 3.33807C127.695 4.20928 128.523 5.2178 129.167 6.36364C129.821 7.5 130.261 8.71212 130.488 10H127.761Z" fill="black"/>
</svg>
